<svg fill="#323757" viewBox="0 0 132 74"  xmlns="http://www.w3.org/2000/svg">
<path d="M44.8032 14.7832V33.5032H47.3952V14.7832H44.8032ZM52.4135 18.0712C52.4135 18.5032 52.5735 18.8792 52.8935 19.1992C53.2295 19.5032 53.6135 19.6552 54.0455 19.6552C54.5095 19.6552 54.8935 19.5032 55.1975 19.1992C55.5175 18.8792 55.6775 18.5032 55.6775 18.0712C55.6775 17.6232 55.5175 17.2472 55.1975 16.9432C54.8935 16.6392 54.5095 16.4872 54.0455 16.4872C53.6135 16.4872 53.2295 16.6392 52.8935 16.9432C52.5735 17.2472 52.4135 17.6232 52.4135 18.0712ZM52.7735 22.4632V33.5032H55.3175V22.4632H52.7735ZM62.4125 27.9832C62.4125 27.2952 62.5645 26.6872 62.8685 26.1592C63.1725 25.6312 63.5805 25.2152 64.0925 24.9112C64.6205 24.6072 65.2045 24.4552 65.8445 24.4552C66.3565 24.4552 66.8525 24.5352 67.3325 24.6952C67.8125 24.8552 68.2365 25.0792 68.6045 25.3672C68.9885 25.6392 69.2685 25.9592 69.4445 26.3272V23.4712C69.0605 23.0872 68.5405 22.7832 67.8845 22.5592C67.2285 22.3352 66.5085 22.2232 65.7245 22.2232C64.5885 22.2232 63.5645 22.4712 62.6525 22.9672C61.7565 23.4472 61.0445 24.1192 60.5165 24.9832C60.0045 25.8472 59.7485 26.8472 59.7485 27.9832C59.7485 29.1032 60.0045 30.1032 60.5165 30.9832C61.0445 31.8472 61.7565 32.5272 62.6525 33.0232C63.5645 33.5032 64.5885 33.7432 65.7245 33.7432C66.5085 33.7432 67.2285 33.6312 67.8845 33.4072C68.5405 33.1832 69.0605 32.8792 69.4445 32.4952V29.6392C69.2685 29.9912 68.9965 30.3112 68.6285 30.5992C68.2605 30.8872 67.8365 31.1112 67.3565 31.2712C66.8765 31.4312 66.3725 31.5112 65.8445 31.5112C65.2045 31.5112 64.6205 31.3592 64.0925 31.0552C63.5805 30.7512 63.1725 30.3432 62.8685 29.8312C62.5645 29.3032 62.4125 28.6872 62.4125 27.9832ZM75.7415 30.0712C75.7415 29.7192 75.8215 29.4232 75.9815 29.1832C76.1575 28.9432 76.4135 28.7592 76.7495 28.6312C77.0855 28.4872 77.5255 28.4152 78.0695 28.4152C78.6935 28.4152 79.2855 28.4952 79.8455 28.6552C80.4055 28.8152 80.9335 29.0712 81.4295 29.4232V28.1032C81.2855 27.9272 81.0375 27.7352 80.6855 27.5272C80.3335 27.3032 79.8855 27.1112 79.3415 26.9512C78.8135 26.7912 78.1815 26.7112 77.4455 26.7112C76.0695 26.7112 75.0055 27.0312 74.2535 27.6712C73.5015 28.2952 73.1255 29.1432 73.1255 30.2152C73.1255 30.9672 73.3015 31.6072 73.6535 32.1352C74.0055 32.6632 74.4775 33.0632 75.0695 33.3352C75.6615 33.6072 76.3015 33.7432 76.9895 33.7432C77.6295 33.7432 78.2535 33.6312 78.8615 33.4072C79.4855 33.1672 79.9975 32.8152 80.3975 32.3512C80.8135 31.8712 81.0215 31.2792 81.0215 30.5752L80.6375 29.1352C80.6375 29.6792 80.5015 30.1592 80.2295 30.5752C79.9735 30.9752 79.6295 31.2792 79.1975 31.4872C78.7815 31.6952 78.3175 31.7992 77.8055 31.7992C77.4055 31.7992 77.0455 31.7352 76.7255 31.6072C76.4215 31.4792 76.1815 31.2872 76.0055 31.0312C75.8295 30.7592 75.7415 30.4392 75.7415 30.0712ZM74.9255 25.3432C75.0855 25.2312 75.3255 25.0952 75.6455 24.9352C75.9815 24.7592 76.3735 24.6152 76.8215 24.5032C77.2855 24.3752 77.7735 24.3112 78.2855 24.3112C78.6215 24.3112 78.9335 24.3432 79.2215 24.4072C79.5095 24.4712 79.7575 24.5752 79.9655 24.7192C80.1735 24.8632 80.3335 25.0472 80.4455 25.2712C80.5735 25.4952 80.6375 25.7832 80.6375 26.1352V33.5032H83.1815V25.6312C83.1815 24.8952 82.9815 24.2792 82.5815 23.7832C82.1815 23.2712 81.6295 22.8792 80.9255 22.6072C80.2375 22.3352 79.4375 22.1992 78.5255 22.1992C77.5015 22.1992 76.5895 22.3432 75.7895 22.6312C75.0055 22.9192 74.3655 23.2152 73.8695 23.5192L74.9255 25.3432ZM95.1072 26.7832V33.5032H97.7712V26.4952C97.7712 25.1672 97.4432 24.1272 96.7872 23.3752C96.1312 22.6072 95.1792 22.2232 93.9312 22.2232C93.1632 22.2232 92.4992 22.3832 91.9392 22.7032C91.3952 23.0232 90.9472 23.5112 90.5952 24.1672V22.4632H88.0032V33.5032H90.5952V26.7832C90.5952 26.2872 90.6992 25.8552 90.9072 25.4872C91.1152 25.1032 91.4032 24.8152 91.7712 24.6232C92.1392 24.4152 92.5632 24.3112 93.0432 24.3112C93.7472 24.3112 94.2672 24.5192 94.6032 24.9352C94.9392 25.3512 95.1072 25.9672 95.1072 26.7832Z"/>
<path d="M44.56 37.28V56H47.104V37.28H44.56ZM51.16 44.96L46.384 49.52L51.664 56H54.808L49.576 49.52L54.328 44.96H51.16ZM68.4584 44.96H65.6744L62.2184 53.624L63.4424 53.696L59.9144 44.96H56.9384L61.3784 54.704L58.4984 61.28H61.2584L68.4584 44.96ZM72.0747 44.96V56H74.6187V44.96H72.0747ZM79.9857 37.28V56H82.5777V37.28H79.9857ZM95.996 37.28V56H98.612V37.28H95.996ZM86.852 50.48C86.852 51.68 87.1 52.712 87.596 53.576C88.092 54.44 88.748 55.104 89.564 55.568C90.396 56.016 91.284 56.24 92.228 56.24C93.156 56.24 93.964 56.008 94.652 55.544C95.356 55.08 95.908 54.416 96.308 53.552C96.724 52.688 96.932 51.664 96.932 50.48C96.932 49.28 96.724 48.256 96.308 47.408C95.908 46.544 95.356 45.88 94.652 45.416C93.964 44.952 93.156 44.72 92.228 44.72C91.284 44.72 90.396 44.952 89.564 45.416C88.748 45.864 88.092 46.52 87.596 47.384C87.1 48.232 86.852 49.264 86.852 50.48ZM89.54 50.48C89.54 49.744 89.692 49.112 89.996 48.584C90.3 48.056 90.7 47.656 91.196 47.384C91.708 47.112 92.26 46.976 92.852 46.976C93.348 46.976 93.836 47.112 94.316 47.384C94.812 47.656 95.212 48.056 95.516 48.584C95.836 49.096 95.996 49.728 95.996 50.48C95.996 51.232 95.836 51.872 95.516 52.4C95.212 52.912 94.812 53.304 94.316 53.576C93.836 53.848 93.348 53.984 92.852 53.984C92.26 53.984 91.708 53.848 91.196 53.576C90.7 53.304 90.3 52.904 89.996 52.376C89.692 51.848 89.54 51.216 89.54 50.48ZM103.889 44.96V56H106.433V44.96H103.889ZM116.936 47.36L110.504 56H120.824V53.6H115.112L121.424 44.96H111.344V47.36H116.936Z"/>
<path d="M18.6202 36.8303L36.0576 44.9615L37.1712 39.7433L21.8546 32.601L18.6202 36.8303ZM34.3209 25.6767L33.8384 40.3694L33.3424 41.802L33.1387 53.928L39.4067 56.8509L39.5293 14.5074L7.17114 41.8192L13.4392 44.742L22.8234 36.5526L23.489 35.3713L34.3209 25.6767Z"/>
</svg>
